REM DIRINDEX 1\2,1\3,1\4,1\5\6,1\5\7,1\8
REM DIRNAME cjc115,folder01,folder02,folder03,folder04,folder05,folder06,folder07
TITLE ""
FILE "111 Åy111ÅzUnit6 (1261 numb_1272 instrumental).mp3" MP3
  TRACK 01 AUDIO
    TITLE "0:"
    INDEX 01 00:00:00
  TRACK 02 AUDIO
    TITLE "2:cjc115_4306"
    INDEX 01 00:00:07
  TRACK 03 AUDIO
    TITLE "0:"
    INDEX 01 00:01:13
  TRACK 04 AUDIO
    TITLE "3:cjc115_4307"
    INDEX 01 00:01:24
  TRACK 05 AUDIO
    TITLE "0:"
    INDEX 01 00:02:43
  TRACK 06 AUDIO
    TITLE "4:cjc115_4308"
    INDEX 01 00:02:49
  TRACK 07 AUDIO
    TITLE "0:"
    INDEX 01 00:06:16
  TRACK 08 AUDIO
    TITLE "2:cjc115_4309"
    INDEX 01 00:07:21
  TRACK 09 AUDIO
    TITLE "0:"
    INDEX 01 00:08:36
  TRACK 10 AUDIO
    TITLE "3:cjc115_4310"
    INDEX 01 00:08:38
  TRACK 11 AUDIO
    TITLE "0:"
    INDEX 01 00:10:29
  TRACK 12 AUDIO
    TITLE "4:cjc115_4311"
    INDEX 01 00:10:31
  TRACK 13 AUDIO
    TITLE "0:"
    INDEX 01 00:15:17
  TRACK 14 AUDIO
    TITLE "2:cjc115_4312"
    INDEX 01 00:16:28
  TRACK 15 AUDIO
    TITLE "0:"
    INDEX 01 00:17:57
  TRACK 16 AUDIO
    TITLE "3:cjc115_4313"
    INDEX 01 00:17:65
  TRACK 17 AUDIO
    TITLE "0:"
    INDEX 01 00:19:36
  TRACK 18 AUDIO
    TITLE "4:cjc115_4314"
    INDEX 01 00:19:44
  TRACK 19 AUDIO
    TITLE "0:"
    INDEX 01 00:23:67
  TRACK 20 AUDIO
    TITLE "2:cjc115_4315"
    INDEX 01 00:24:72
  TRACK 21 AUDIO
    TITLE "0:"
    INDEX 01 00:25:70
  TRACK 22 AUDIO
    TITLE "3:cjc115_4316"
    INDEX 01 00:26:03
  TRACK 23 AUDIO
    TITLE "0:"
    INDEX 01 00:27:10
  TRACK 24 AUDIO
    TITLE "4:cjc115_4317"
    INDEX 01 00:27:14
  TRACK 25 AUDIO
    TITLE "0:"
    INDEX 01 00:30:28
  TRACK 26 AUDIO
    TITLE "2:cjc115_4318"
    INDEX 01 00:31:35
  TRACK 27 AUDIO
    TITLE "0:"
    INDEX 01 00:32:45
  TRACK 28 AUDIO
    TITLE "3:cjc115_4319"
    INDEX 01 00:32:56
  TRACK 29 AUDIO
    TITLE "0:"
    INDEX 01 00:34:10
  TRACK 30 AUDIO
    TITLE "4:cjc115_4320"
    INDEX 01 00:34:20
  TRACK 31 AUDIO
    TITLE "0:"
    INDEX 01 00:38:16
  TRACK 32 AUDIO
    TITLE "2:cjc115_4321"
    INDEX 01 00:39:21
  TRACK 33 AUDIO
    TITLE "0:"
    INDEX 01 00:40:50
  TRACK 34 AUDIO
    TITLE "3:cjc115_4322"
    INDEX 01 00:40:58
  TRACK 35 AUDIO
    TITLE "0:"
    INDEX 01 00:42:19
  TRACK 36 AUDIO
    TITLE "4:cjc115_4323"
    INDEX 01 00:42:25
  TRACK 37 AUDIO
    TITLE "0:"
    INDEX 01 00:47:19
  TRACK 38 AUDIO
    TITLE "2:cjc115_4324"
    INDEX 01 00:48:30
  TRACK 39 AUDIO
    TITLE "0:"
    INDEX 01 00:49:47
  TRACK 40 AUDIO
    TITLE "3:cjc115_4325"
    INDEX 01 00:49:49
  TRACK 41 AUDIO
    TITLE "0:"
    INDEX 01 00:52:53
  TRACK 42 AUDIO
    TITLE "4:cjc115_4326"
    INDEX 01 00:52:63
  TRACK 43 AUDIO
    TITLE "0:"
    INDEX 01 00:57:33
  TRACK 44 AUDIO
    TITLE "2:cjc115_4327"
    INDEX 01 00:58:42
  TRACK 45 AUDIO
    TITLE "0:"
    INDEX 01 00:59:59
  TRACK 46 AUDIO
    TITLE "3:cjc115_4328"
    INDEX 01 00:59:65
  TRACK 47 AUDIO
    TITLE "0:"
    INDEX 01 01:01:48
  TRACK 48 AUDIO
    TITLE "4:cjc115_4329"
    INDEX 01 01:01:50
  TRACK 49 AUDIO
    TITLE "0:"
    INDEX 01 01:04:35
  TRACK 50 AUDIO
    TITLE "2:cjc115_4330"
    INDEX 01 01:05:50
  TRACK 51 AUDIO
    TITLE "0:"
    INDEX 01 01:07:02
  TRACK 52 AUDIO
    TITLE "3:cjc115_4331"
    INDEX 01 01:07:14
  TRACK 53 AUDIO
    TITLE "0:"
    INDEX 01 01:08:64
  TRACK 54 AUDIO
    TITLE "4:cjc115_4332"
    INDEX 01 01:08:68
  TRACK 55 AUDIO
    TITLE "0:"
    INDEX 01 01:12:40
  TRACK 56 AUDIO
    TITLE "2:cjc115_4333"
    INDEX 01 01:13:49
  TRACK 57 AUDIO
    TITLE "0:"
    INDEX 01 01:15:01
  TRACK 58 AUDIO
    TITLE "3:cjc115_4334"
    INDEX 01 01:15:09
  TRACK 59 AUDIO
    TITLE "0:"
    INDEX 01 01:17:55
  TRACK 60 AUDIO
    TITLE "4:cjc115_4335"
    INDEX 01 01:17:65
  TRACK 61 AUDIO
    TITLE "0:"
    INDEX 01 01:21:18
  TRACK 62 AUDIO
    TITLE "2:cjc115_4336"
    INDEX 01 01:22:23
  TRACK 63 AUDIO
    TITLE "0:"
    INDEX 01 01:23:34
  TRACK 64 AUDIO
    TITLE "3:cjc115_4337"
    INDEX 01 01:23:42
  TRACK 65 AUDIO
    TITLE "0:"
    INDEX 01 01:24:73
  TRACK 66 AUDIO
    TITLE "4:cjc115_4338"
    INDEX 01 01:25:04
  TRACK 67 AUDIO
    TITLE "0:"
    INDEX 01 01:29:41
  TRACK 68 AUDIO
    TITLE "2:cjc115_4339"
    INDEX 01 01:30:52
  TRACK 69 AUDIO
    TITLE "0:"
    INDEX 01 01:31:73
  TRACK 70 AUDIO
    TITLE "3:cjc115_4340"
    INDEX 01 01:32:04
  TRACK 71 AUDIO
    TITLE "0:"
    INDEX 01 01:36:43
  TRACK 72 AUDIO
    TITLE "4:cjc115_4341"
    INDEX 01 01:36:50
  TRACK 73 AUDIO
    TITLE "0:"
    INDEX 01 01:41:46
